<svg width="469" height="434" fill="none" xmlns="http://www.w3.org/2000/svg"><path fill-rule="evenodd" clip-rule="evenodd" d="M14.944 156.917l129.426 224.17c40.094 69.446 140.328 69.446 180.422 0l129.425-224.17C494.31 87.472 444.194.667 364.006.667H105.155c-80.187 0-130.304 86.805-90.21 156.25zm273.764 203.337c-24.056 41.667-84.198 41.667-108.254 0l-3.336-5.779.09-5.319a125.003 125.003 0 0116.919-60.717l37.471-64.45 42.344 72.834a125.046 125.046 0 0115.656 44.975l1.952 13.533-2.842 4.923zm33.582-58.165l61.195-105.993a166.64 166.64 0 01-37.591 4.295h-79.819l43.888 75.488a166.778 166.778 0 0112.327 26.21zm94.256-163.257l1.587-2.749c24.057-41.666-6.014-93.75-54.127-93.75h-12.437l-13.556 11.818a124.954 124.954 0 00-25.925 31.398l-42.544 73.175h76.35c18.004 0 35.794-3.889 52.154-11.4l18.498-8.492zM291.571 42.333a166.642 166.642 0 00-15.506 22.273l-44.467 76.485-42.59-73.254a166.66 166.66 0 00-18.239-25.504h120.802zm-183.362 0h-3.054c-48.112 0-78.183 52.084-54.126 93.75l1.71 2.963 18.477 8.421a125 125 0 0051.841 11.257h70.595L152.987 88.78a124.993 124.993 0 00-30.706-35.36l-14.072-11.087zm-22.5 153.819l58.647 101.579a166.57 166.57 0 0113.749-30.233l39.016-67.107h-74.064a166.695 166.695 0 01-37.347-4.239z" fill="#2F65B9"/></svg>