<svg width="938" height="230" fill="none" xmlns="http://www.w3.org/2000/svg"><path fill-rule="evenodd" clip-rule="evenodd" d="M7.504 83.092l68.827 119.21c21.321 36.931 74.624 36.931 95.945 0l68.827-119.21C262.424 46.161 235.773 0 193.13 0H55.477C12.834 0-13.817 46.162 7.504 83.092zm145.584 108.131c-12.793 22.158-44.775 22.158-57.568 0l-1.774-3.073.047-2.828a66.478 66.478 0 018.998-32.289l19.926-34.273 22.518 38.732a66.5 66.5 0 018.326 23.917l1.038 7.196-1.511 2.618zm17.858-30.931l32.543-56.366a88.597 88.597 0 01-19.991 2.285h-42.446l23.338 40.143a88.594 88.594 0 016.556 13.938zm50.124-86.818l.844-1.461c12.793-22.158-3.198-49.855-28.784-49.855h-6.614l-7.209 6.284A66.477 66.477 0 00165.52 45.14l-22.624 38.914h40.602a66.472 66.472 0 0027.735-6.063l9.837-4.516zm-66.46-51.316a88.614 88.614 0 00-8.246 11.844l-23.647 40.674-22.648-38.956a88.654 88.654 0 00-9.7-13.562h64.241zm-97.509 0h-1.624c-25.586 0-41.577 27.697-28.784 49.855l.91 1.575 9.826 4.479a66.473 66.473 0 0027.568 5.986h37.541L80.913 46.857a66.477 66.477 0 00-16.329-18.804l-7.483-5.895zm-11.965 81.798l31.187 54.019a88.584 88.584 0 017.312-16.078l20.748-35.686H64.997a88.602 88.602 0 01-19.86-2.255z" fill="#2F65B9"/><path d="M339.796 190.16c-8.4 0-16.2-1.56-23.4-4.68-7.2-3.24-13.32-7.62-18.36-13.14-5.04-5.52-8.76-11.88-11.16-19.08l18-7.56c3.24 8.28 7.98 14.64 14.22 19.08 6.24 4.44 13.44 6.66 21.6 6.66 4.8 0 9-.72 12.6-2.16 3.6-1.56 6.36-3.72 8.28-6.48 2.04-2.76 3.06-5.94 3.06-9.54 0-4.92-1.38-8.82-4.14-11.7-2.76-2.88-6.84-5.16-12.24-6.84l-25.2-7.92c-10.08-3.12-17.76-7.86-23.04-14.22-5.28-6.48-7.92-14.04-7.92-22.68 0-7.56 1.86-14.16 5.58-19.8 3.72-5.76 8.82-10.26 15.3-13.5 6.6-3.24 14.1-4.86 22.5-4.86 8.04 0 15.36 1.44 21.96 4.32 6.6 2.76 12.24 6.6 16.92 11.52 4.8 4.92 8.28 10.62 10.44 17.1l-17.64 7.74c-2.64-7.08-6.78-12.54-12.42-16.38-5.52-3.84-11.94-5.76-19.26-5.76-4.44 0-8.34.78-11.7 2.34-3.36 1.44-6 3.6-7.92 6.48-1.8 2.76-2.7 6-2.7 9.72 0 4.32 1.38 8.16 4.14 11.52 2.76 3.36 6.96 5.88 12.6 7.56l23.4 7.38c10.68 3.24 18.72 7.92 24.12 14.04 5.4 6 8.1 13.5 8.1 22.5 0 7.44-1.98 14.04-5.94 19.8-3.84 5.76-9.18 10.32-16.02 13.68-6.84 3.24-14.76 4.86-23.76 4.86zm114.563 0c-9.36 0-17.94-2.22-25.74-6.66-7.68-4.44-13.8-10.5-18.36-18.18-4.56-7.68-6.84-16.38-6.84-26.1 0-9.84 2.28-18.54 6.84-26.1 4.56-7.68 10.68-13.68 18.36-18 7.68-4.44 16.26-6.66 25.74-6.66 9.6 0 18.18 2.22 25.74 6.66 7.68 4.32 13.74 10.32 18.18 18 4.56 7.56 6.84 16.26 6.84 26.1s-2.28 18.6-6.84 26.28c-4.56 7.68-10.68 13.74-18.36 18.18-7.68 4.32-16.2 6.48-25.56 6.48zm0-18.9c5.76 0 10.86-1.38 15.3-4.14 4.44-2.76 7.92-6.54 10.44-11.34 2.64-4.92 3.96-10.44 3.96-16.56 0-6.12-1.32-11.58-3.96-16.38-2.52-4.8-6-8.58-10.44-11.34-4.44-2.76-9.54-4.14-15.3-4.14-5.64 0-10.74 1.38-15.3 4.14-4.44 2.76-7.98 6.54-10.62 11.34-2.52 4.8-3.78 10.26-3.78 16.38 0 6.12 1.26 11.64 3.78 16.56 2.64 4.8 6.18 8.58 10.62 11.34 4.56 2.76 9.66 4.14 15.3 4.14zm116.878 18.9c-9.72 0-18.36-2.22-25.92-6.66-7.44-4.56-13.38-10.68-17.82-18.36-4.32-7.68-6.48-16.38-6.48-26.1 0-9.6 2.16-18.24 6.48-25.92 4.32-7.68 10.26-13.68 17.82-18 7.56-4.44 16.2-6.66 25.92-6.66 6.6 0 12.78 1.2 18.54 3.6 5.76 2.28 10.74 5.46 14.94 9.54 4.32 4.08 7.5 8.82 9.54 14.22l-17.82 8.28c-2.04-5.04-5.34-9.06-9.9-12.06-4.44-3.12-9.54-4.68-15.3-4.68-5.52 0-10.5 1.38-14.94 4.14-4.32 2.64-7.74 6.42-10.26 11.34-2.52 4.8-3.78 10.26-3.78 16.38 0 6.12 1.26 11.64 3.78 16.56 2.52 4.8 5.94 8.58 10.26 11.34 4.44 2.76 9.42 4.14 14.94 4.14 5.88 0 10.98-1.5 15.3-4.5 4.44-3.12 7.74-7.26 9.9-12.42l17.82 8.46c-1.92 5.16-5.04 9.84-9.36 14.04-4.2 4.08-9.18 7.32-14.94 9.72-5.76 2.4-12 3.6-18.72 3.6zm62.9-2.16V90.62h20.34V188h-20.34zm0-110.7V53.9h20.34v23.4h-20.34zm73.281 112.86c-6.6 0-12.42-1.14-17.46-3.42-4.92-2.4-8.76-5.64-11.52-9.72-2.76-4.2-4.14-9.12-4.14-14.76 0-5.28 1.14-10.02 3.42-14.22 2.4-4.2 6.06-7.74 10.98-10.62 4.92-2.88 11.1-4.92 18.54-6.12l33.84-5.58v16.02l-29.88 5.22c-5.4.96-9.36 2.7-11.88 5.22-2.52 2.4-3.78 5.52-3.78 9.36 0 3.72 1.38 6.78 4.14 9.18 2.88 2.28 6.54 3.42 10.98 3.42 5.52 0 10.32-1.2 14.4-3.6 4.2-2.4 7.44-5.58 9.72-9.54 2.28-4.08 3.42-8.58 3.42-13.5v-25.02c0-4.8-1.8-8.7-5.4-11.7-3.48-3.12-8.16-4.68-14.04-4.68-5.4 0-10.14 1.44-14.22 4.32-3.96 2.76-6.9 6.36-8.82 10.8l-16.92-8.46c1.8-4.8 4.74-9 8.82-12.6 4.08-3.72 8.82-6.6 14.22-8.64 5.52-2.04 11.34-3.06 17.46-3.06 7.68 0 14.46 1.44 20.34 4.32 6 2.88 10.62 6.9 13.86 12.06 3.36 5.04 5.04 10.92 5.04 17.64V188h-19.44v-17.64l4.14.54a36.108 36.108 0 01-8.82 10.26c-3.48 2.88-7.5 5.1-12.06 6.66-4.44 1.56-9.42 2.34-14.94 2.34zm74.903-2.16V51.74h20.34V188h-20.34zm81.741 0l-47.52-134.1h22.86l38.88 114.48h-4.5l38.7-114.48h22.86L887.822 188h-23.76z" fill="#07142E"/></svg>