<?xml version="1.0" encoding="utf-8"?>
<!-- Generator: Adobe Illustrator 24.0.1, SVG Export Plug-In . SVG Version: 6.00 Build 0)  -->
<svg version="1.1" id="Layer_1" xmlns="http://www.w3.org/2000/svg" xmlns:xlink="http://www.w3.org/1999/xlink" x="0px" y="0px"
	 viewBox="0 0 96 96" style="enable-background:new 0 0 96 96;" xml:space="preserve">
<style type="text/css">
	.st0{fill:#2D5BE3;}
</style>
<path class="st0" d="M0.8,68.7L0.8,68.7L0.8,68.7z M27.3,0.8L27.3,0.8L27.3,0.8z M5.5,36v23.9l12-12L5.5,36z M59.9,5.6H36l12,12
	L59.9,5.6z M29.2,96L29.2,96h-0.1H29h-0.1h-0.1h-0.1h0h0h-0.1l-0.1,0l-0.1,0l-0.1,0l-0.1,0l-0.1,0l-0.1,0l-0.1,0l0,0l0,0l-0.1,0
	l-0.1,0l-0.1,0l0,0l0,0l0,0l0,0l0,0c0,0-0.1,0-0.1-0.1l0,0l0,0l0,0l0,0l0,0l0,0l0,0L0.8,68.7l-0.1-0.1l0,0l0,0l0,0l0,0l0,0l0,0l0,0
	l0,0l0,0v0l0,0v0v0l0,0v0v0l0,0v0v0l0,0v0l0,0v0C0.1,67.5,0,67.1,0,66.6V29.2v-0.1v0v0v0v0V29v-0.1v-0.1v0v0l0-0.1l0-0.1l0-0.1
	l0-0.1l0-0.1l0-0.1l0-0.1l0-0.1l0,0l0,0l0-0.1l0,0l0,0l0,0l0-0.1l0,0l0,0l0,0l0,0l0,0l0,0l0,0l0,0l0,0l0,0l0,0l0,0l0,0l0,0L27.2,0.8
	l0.1-0.1l0,0l0,0l0,0l0,0l0,0l0,0l0,0l0,0l0,0l0,0h0h0l0,0h0h0l0,0h0h0l0,0h0l0,0h0C28.4,0.1,28.8,0,29.3,0h37.5h0.1h0h0h0h0H67h0.1
	h0.1h0h0h0.1l0.1,0l0.1,0l0.1,0l0.1,0l0.1,0l0.1,0l0.1,0h0l0,0l0,0l0,0l0,0l0,0l0,0l0,0l0,0h0l0,0l0,0l0,0l0,0l0,0l0,0l0,0l0,0l0,0
	l0,0l0,0l0,0l0,0l0,0l0,0l26.5,26.5c1.1,1.1,1.1,2.9,0,4l-9.4,9.3c-3.1,3.1-7.3,4.7-11.4,4.7c-4.1,0-8.2-1.6-11.4-4.7l-8.6-8.6
	c-1.1-1.1-1.1-2.9,0-4c1.1-1.1,2.9-1.1,4,0l8.6,8.6c2,2,4.7,3.1,7.4,3.1c2.7,0,5.3-1,7.4-3.1l7.4-7.4L66.6,6.8L49.9,23.6L32,41.5
	c-1.1,1.1-2.9,1.1-4,0c-1.1-1.1-1.1-2.9,0-4l15.9-15.9L29.2,6.7L6.7,29.2l34.7,34.7c1.1,1.1,1.1,2.9,0,4c-1.1,1.1-2.9,1.1-4,0
	l-16-16L6.7,66.7l22.5,22.5l33.9-33.9c3.1-3.1,7.3-4.7,11.4-4.7c4.1,0,8.2,1.6,11.4,4.7l9.4,9.3l0,0l0,0l0,0l0,0l0,0l0,0l0,0l0,0
	l0,0l0,0l0,0l0,0l0,0.1l0,0.1l0,0.1l0,0.1l0,0.1l0,0.1l0,0.1l0,0.1l0,0.1l0,0.1l0,0.1l0,0.1v0.1v0.1v0.1v0.1v0.1v0.1v0.1v0.1
	c0,0.7-0.3,1.4-0.8,2L68.7,95.1l0,0l0,0l0,0l0,0l0,0l0,0l0,0l0,0l0,0l0,0l0,0l0,0h0h0l0,0h0h0l0,0h0h0l0,0h0l0,0h0
	c-0.4,0.2-0.8,0.3-1.3,0.3L29.2,96z M81.9,59.3c-2.1-2-4.7-3.1-7.4-3.1c-2.7,0-5.3,1-7.4,3.1L36,90.4h23.9L54.6,85
	c-1.1-1.1-1.1-2.9,0-4c1.1-1.1,2.9-1.1,4,0l8.2,8.2l22.5-22.5L81.9,59.3z"/>
</svg>
