<?xml version="1.0" encoding="utf-8"?>
<!-- Generator: Adobe Illustrator 24.0.1, SVG Export Plug-In . SVG Version: 6.00 Build 0)  -->
<svg version="1.1" id="Layer_1" xmlns="http://www.w3.org/2000/svg" xmlns:xlink="http://www.w3.org/1999/xlink" x="0px" y="0px"
	 viewBox="0 0 312 96" style="enable-background:new 0 0 312 96;" xml:space="preserve">
<style type="text/css">
	.st0{fill:#FFFFFF;}
</style>
<path class="st0" d="M0.8,68.7L0.8,68.7L0.8,68.7z M27.3,0.8L27.3,0.8L27.3,0.8z M5.5,36v23.9l12-12L5.5,36z M59.9,5.6H36l12,12
	L59.9,5.6z M29.2,96L29.2,96h-0.1H29h-0.1h-0.1h-0.1h0h0h-0.1l-0.1,0l-0.1,0l-0.1,0l-0.1,0l-0.1,0l-0.1,0l-0.1,0l0,0l0,0l-0.1,0
	l-0.1,0l-0.1,0l0,0l0,0l0,0l0,0l0,0c0,0-0.1,0-0.1-0.1l0,0l0,0l0,0l0,0l0,0l0,0l0,0L0.8,68.7l-0.1-0.1l0,0l0,0l0,0l0,0l0,0l0,0l0,0
	l0,0l0,0v0l0,0v0v0l0,0v0v0l0,0v0v0l0,0v0l0,0v0C0.1,67.5,0,67.1,0,66.6V29.2v-0.1v0v0v0v0V29v-0.1v-0.1v0v0l0-0.1l0-0.1l0-0.1
	l0-0.1l0-0.1l0-0.1l0-0.1l0-0.1l0,0l0,0l0-0.1l0,0l0,0l0,0l0-0.1l0,0l0,0l0,0l0,0l0,0l0,0l0,0l0,0l0,0l0,0l0,0l0,0l0,0l0,0L27.2,0.8
	l0.1-0.1l0,0l0,0l0,0l0,0l0,0l0,0l0,0l0,0l0,0l0,0h0h0l0,0h0h0l0,0h0h0l0,0h0l0,0h0C28.4,0.1,28.8,0,29.3,0h37.5h0.1h0h0h0h0H67h0.1
	h0.1h0h0h0.1l0.1,0l0.1,0l0.1,0l0.1,0l0.1,0l0.1,0l0.1,0h0l0,0l0,0l0,0l0,0l0,0l0,0l0,0l0,0h0l0,0l0,0l0,0l0,0l0,0l0,0l0,0l0,0l0,0
	l0,0l0,0l0,0l0,0l0,0l0,0l26.5,26.5c1.1,1.1,1.1,2.9,0,4l-9.4,9.3c-3.1,3.1-7.3,4.7-11.4,4.7c-4.1,0-8.2-1.6-11.4-4.7l-8.6-8.6
	c-1.1-1.1-1.1-2.9,0-4c1.1-1.1,2.9-1.1,4,0l8.6,8.6c2,2,4.7,3.1,7.4,3.1c2.7,0,5.3-1,7.4-3.1l7.4-7.4L66.6,6.8L49.9,23.6L32,41.5
	c-1.1,1.1-2.9,1.1-4,0c-1.1-1.1-1.1-2.9,0-4l15.9-15.9L29.2,6.7L6.7,29.2l34.7,34.7c1.1,1.1,1.1,2.9,0,4c-1.1,1.1-2.9,1.1-4,0
	l-16-16L6.7,66.7l22.5,22.5l33.9-33.9c3.1-3.1,7.3-4.7,11.4-4.7c4.1,0,8.2,1.6,11.4,4.7l9.4,9.3l0,0l0,0l0,0l0,0l0,0l0,0l0,0l0,0
	l0,0l0,0l0,0l0,0l0,0.1l0,0.1l0,0.1l0,0.1l0,0.1l0,0.1l0,0.1l0,0.1l0,0.1l0,0.1l0,0.1l0,0.1v0.1v0.1v0.1v0.1v0.1v0.1v0.1v0.1
	c0,0.7-0.3,1.4-0.8,2L68.7,95.1l0,0l0,0l0,0l0,0l0,0l0,0l0,0l0,0l0,0l0,0l0,0l0,0h0h0l0,0h0h0l0,0h0h0l0,0h0l0,0h0
	c-0.4,0.2-0.8,0.3-1.3,0.3L29.2,96z M81.9,59.3c-2.1-2-4.7-3.1-7.4-3.1c-2.7,0-5.3,1-7.4,3.1L36,90.4h23.9L54.6,85
	c-1.1-1.1-1.1-2.9,0-4c1.1-1.1,2.9-1.1,4,0l8.2,8.2l22.5-22.5L81.9,59.3z"/>
<path class="st0" d="M110.6,22c-2.5,0-4.5-0.6-5.9-1.8c-1.4-1.3-2-3-2-5.2c0-2.3,0.7-4,2-5.2c1.4-1.2,3.4-1.8,5.9-1.8
	c5.3,0,7.9,2.4,7.9,7.1S115.9,22,110.6,22z M110.6,85.7c-2.1,0-3.8-0.6-4.9-1.9c-1.1-1.3-1.7-3.1-1.7-5.3V39.2
	c0-4.9,2.2-7.3,6.6-7.3c4.5,0,6.7,2.4,6.7,7.3v39.3c0,2.3-0.6,4.1-1.7,5.3C114.5,85.1,112.8,85.7,110.6,85.7z"/>
<path class="st0" d="M138.1,85.9c-4.6,0-6.8-2.3-6.8-6.8V38.6c0-4.5,2.2-6.7,6.5-6.7c4.4,0,6.5,2.2,6.5,6.7v3.3
	c2.6-6.1,8.1-9.6,16.5-10.3c3.1-0.4,4.8,1.4,5.1,5.2c0.4,3.8-1.5,5.9-5.6,6.3l-2.4,0.2c-8.8,0.9-13.2,5.4-13.2,13.5V79
	C144.8,83.6,142.6,85.9,138.1,85.9z"/>
<path class="st0" d="M179.8,85.9c-4.4,0-6.6-2.3-6.6-6.8V15.4c0-4.5,2.2-6.7,6.6-6.7c4.5,0,6.7,2.2,6.7,6.7v39.5h0.2l17.7-18.6
	c1.4-1.4,2.7-2.5,3.7-3.3c1.1-0.8,2.5-1.2,4.4-1.2c1.9,0,3.2,0.5,4.2,1.5c1,0.9,1.5,2.1,1.5,3.4c0,1.4-0.6,2.7-1.9,4.1l-16.1,16.9
	L218.1,77c1.3,1.4,1.9,2.7,1.7,4.2c-0.1,1.4-0.6,2.5-1.7,3.4c-1.1,0.9-2.4,1.3-4.1,1.3c-2,0-3.6-0.4-4.8-1.2c-1.1-0.8-2.4-2-3.9-3.5
	l-18.6-19.5h-0.2V79C186.5,83.6,184.3,85.9,179.8,85.9z"/>
<path class="st0" d="M248.4,86.1c-11.9,0-17.9-6.7-17.9-20V15.4c0-4.5,2.2-6.7,6.6-6.7c4.5,0,6.7,2.2,6.7,6.7v50
	c0,6.4,2.7,9.6,8,9.6c0.6,0,1.1,0,1.6,0c0.5-0.1,1-0.1,1.5-0.2c1-0.1,1.7,0.1,2,0.9c0.4,0.6,0.5,2,0.5,4.1c0,1.8-0.4,3.2-1.1,4.2
	c-0.7,1-1.9,1.6-3.5,1.8C251.5,86,249.9,86.1,248.4,86.1z"/>
<path class="st0" d="M289.9,86.1c-5.9,0-11-1.1-15.3-3.3c-4.3-2.2-7.6-5.3-10-9.4c-2.3-4.1-3.4-8.9-3.4-14.4
	c0-5.4,1.1-10.2,3.3-14.2c2.3-4.1,5.4-7.2,9.3-9.5c4-2.4,8.5-3.5,13.6-3.5c7.4,0,13.3,2.4,17.5,7.1c4.4,4.7,6.5,11.1,6.5,19.3
	c0,2.6-1.7,4-5.1,4h-32.3c1,9.3,6.3,14,16.1,14c1.9,0,3.9-0.2,6.2-0.6c2.4-0.5,4.6-1.3,6.6-2.5c1.9-1.1,3.4-1.4,4.7-1
	c1.3,0.4,2.2,1.1,2.7,2.2c0.6,1.1,0.6,2.4,0.2,3.9c-0.4,1.4-1.4,2.5-3,3.5c-2.5,1.6-5.4,2.7-8.7,3.5
	C295.7,85.7,292.7,86.1,289.9,86.1z M288,40.7c-3.9,0-7.1,1.2-9.5,3.6c-2.4,2.4-3.9,5.7-4.4,9.8h26.3c-0.3-4.4-1.5-7.7-3.6-10
	C294.7,41.9,291.8,40.7,288,40.7z"/>
</svg>
